<?xml version="1.0" encoding="utf-8"?>
<!-- Generator: Adobe Illustrator 23.0.2, SVG Export Plug-In . SVG Version: 6.00 Build 0)  -->
<svg version="1.1" id="Layer_1" xmlns="http://www.w3.org/2000/svg" xmlns:xlink="http://www.w3.org/1999/xlink" x="0px" y="0px"
	 viewBox="0 0 434 245" style="enable-background:new 0 0 434 245;" xml:space="preserve">
<style type="text/css">
	.st0{font-family:'LinBiolinumO';}
	.st1{font-size:12px;}
	.st2{fill:#FFFFFF;stroke:#808080;stroke-miterlimit:10;}
	.st3{font-size:10px;}
	.st4{fill:none;stroke:#C1272D;stroke-miterlimit:10;}
	.st5{fill:#C1272D;}
	.st6{fill:none;stroke:#0071BC;stroke-miterlimit:10;}
	.st7{fill:none;stroke:#0071BC;stroke-miterlimit:10;stroke-dasharray:3.0273,3.0273;}
	.st8{fill:#0071BC;}
	.st9{fill:none;stroke:#39B54A;stroke-miterlimit:10;}
	.st10{fill:none;stroke:#39B54A;stroke-miterlimit:10;stroke-dasharray:3.0238,3.0238;}
	.st11{fill:#39B54A;}
	.st12{fill:none;stroke:#FBB03B;stroke-miterlimit:10;}
	.st13{fill:none;stroke:#FBB03B;stroke-miterlimit:10;stroke-dasharray:2.7273,2.7273;}
	.st14{fill:#FBB03B;}
	.st15{opacity:0.9;}
	.st16{fill:none;stroke:#C1272D;stroke-width:1.5;stroke-linecap:round;stroke-miterlimit:10;}
	.st17{fill:none;stroke:#000000;stroke-miterlimit:10;stroke-dasharray:3;}
	.st18{font-family:'Courier';}
	.st19{fill:none;stroke:#0071BC;stroke-miterlimit:10;stroke-dasharray:2.9767,2.9767;}
	.st20{fill:none;stroke:#39B54A;stroke-miterlimit:10;stroke-dasharray:3,3;}
	.st21{fill:none;stroke:#FBB03B;stroke-miterlimit:10;stroke-dasharray:1,1;}
	.st22{fill:none;stroke:#000000;stroke-miterlimit:10;}
</style>
<text transform="matrix(1 0 0 1 135.4287 9.6328)" class="st0 st1">example halfedge index space</text>
<g>
	<rect x="21.5" y="67.5" class="st2" width="17" height="17"/>
	<rect x="38.5" y="67.5" class="st2" width="17" height="17"/>
	<text transform="matrix(1 0 0 1 27.6387 79.6328)" class="st0 st1">0</text>
	<text transform="matrix(1 0 0 1 44.6387 79.6328)" class="st0 st1">1</text>
	<rect x="55.5" y="67.5" class="st2" width="17" height="17"/>
	<rect x="72.5" y="67.5" class="st2" width="17" height="17"/>
	<text transform="matrix(1 0 0 1 61.6387 79.6328)" class="st0 st1">2</text>
	<text transform="matrix(1 0 0 1 78.6387 79.6328)" class="st0 st1">3</text>
	<rect x="89.5" y="67.5" class="st2" width="17" height="17"/>
	<rect x="106.5" y="67.5" class="st2" width="17" height="17"/>
	<text transform="matrix(1 0 0 1 95.6387 79.6328)" class="st0 st1">4</text>
	<text transform="matrix(1 0 0 1 112.6387 79.6328)" class="st0 st1">5</text>
	<rect x="123.5" y="67.5" class="st2" width="17" height="17"/>
	<rect x="140.5" y="67.5" class="st2" width="17" height="17"/>
	<text transform="matrix(1 0 0 1 129.6387 79.6328)" class="st0 st1">6</text>
	<text transform="matrix(1 0 0 1 146.6387 79.6328)" class="st0 st1">7</text>
	<rect x="157.5" y="67.5" class="st2" width="17" height="17"/>
	<rect x="174.5" y="67.5" class="st2" width="17" height="17"/>
	<text transform="matrix(1 0 0 1 163.6387 79.6328)" class="st0 st1">8</text>
	<text transform="matrix(1 0 0 1 180.6387 79.6328)" class="st0 st1">9</text>
	<rect x="191.5" y="67.5" class="st2" width="17" height="17"/>
	<rect x="208.5" y="67.5" class="st2" width="17" height="17"/>
	<text transform="matrix(1 0 0 1 193.8486 79.6328)" class="st0 st1">10</text>
	<text transform="matrix(1 0 0 1 210.8486 79.6328)" class="st0 st1">11</text>
	<rect x="225.5" y="67.5" class="st2" width="17" height="17"/>
	<rect x="242.5" y="67.5" class="st2" width="17" height="17"/>
	<text transform="matrix(1 0 0 1 227.8486 79.6328)" class="st0 st1">12</text>
	<text transform="matrix(1 0 0 1 244.8486 79.6328)" class="st0 st1">13</text>
	<rect x="259.5" y="67.5" class="st2" width="17" height="17"/>
	<rect x="276.5" y="67.5" class="st2" width="17" height="17"/>
	<text transform="matrix(1 0 0 1 261.8486 79.6328)" class="st0 st1">14</text>
	<text transform="matrix(1 0 0 1 278.8486 79.6328)" class="st0 st1">15</text>
</g>
<text transform="matrix(1 0 0 1 67.9935 108.6328)"><tspan x="0" y="0" class="st0 st3">deleted, invalid halfedge</tspan><tspan x="100.46" y="0" class="st0 st3">s</tspan></text>
<g>
	<g>
		<path class="st4" d="M129,99.04c-0.25-0.58-0.69-1.44-1.5-2.24c-4.68-4.62-13.73,0.67-18-3.31c-0.64-0.59-1.29-1.51-1.67-2.99"/>
		<g>
			<path class="st5" d="M107.5,87.5c0.7,1.34,1.81,2.98,2.88,3.95l-2.47-0.56l-2.25,1.15C106.48,90.83,107.15,88.97,107.5,87.5z"/>
		</g>
	</g>
</g>
<g>
	<g>
		<path class="st4" d="M139,99.04c0.24-0.3,0.75-0.92,1.5-1.6c9.79-8.92,28.15,0.21,33-6.94c0.03-0.04,0.05-0.08,0.08-0.12"/>
		<g>
			<path class="st5" d="M174.5,87.5c0.03,1.51,0.3,3.47,0.84,4.82l-1.96-1.6l-2.53,0.03C172.11,90.03,173.54,88.67,174.5,87.5z"/>
		</g>
	</g>
</g>
<g>
	<g>
		<path class="st4" d="M158.5,100c0.61-0.24,2.1-0.83,4-1.5c52.96-18.75,104.11,8.06,113-8c0.02-0.04,0.04-0.08,0.07-0.12"/>
		<g>
			<path class="st5" d="M276.5,87.5c0.04,1.51,0.32,3.47,0.86,4.81l-1.97-1.59l-2.53,0.04C274.12,90.05,275.54,88.67,276.5,87.5z"/>
		</g>
	</g>
</g>
<g>
	<g>
		<line class="st6" x1="21.5" y1="62.5" x2="23" y2="62.5"/>
		<line class="st7" x1="26.03" y1="62.5" x2="187.99" y2="62.5"/>
		<line class="st6" x1="189.5" y1="62.5" x2="191" y2="62.5"/>
		<g>
			<rect x="21" y="59.25" class="st8" width="1" height="6.5"/>
		</g>
		<g>
			<rect x="190.5" y="59.25" class="st8" width="1" height="6.5"/>
		</g>
	</g>
</g>
<g>
	<g>
		<line class="st9" x1="292.5" y1="62.5" x2="291" y2="62.5"/>
		<line class="st10" x1="287.98" y1="62.5" x2="229.01" y2="62.5"/>
		<line class="st9" x1="227.5" y1="62.5" x2="226" y2="62.5"/>
		<g>
			<rect x="292" y="59.25" class="st11" width="1" height="6.5"/>
		</g>
		<g>
			<rect x="225.5" y="59.25" class="st11" width="1" height="6.5"/>
		</g>
	</g>
</g>
<g>
	<g>
		<line class="st12" x1="192" y1="62.5" x2="193.5" y2="62.5"/>
		<line class="st13" x1="196.23" y1="62.5" x2="222.14" y2="62.5"/>
		<line class="st12" x1="223.5" y1="62.5" x2="225" y2="62.5"/>
		<g>
			<rect x="191.5" y="59.25" class="st14" width="1" height="6.5"/>
		</g>
		<g>
			<rect x="224.5" y="59.25" class="st14" width="1" height="6.5"/>
		</g>
	</g>
</g>
<text transform="matrix(1 0 0 1 71.8389 44.6328)"><tspan x="0" y="0" class="st0 st3">real halfedges</tspan><tspan x="-7.4" y="12" class="st0 st3">(possibly deleted)</tspan></text>
<text transform="matrix(1 0 0 1 213.7588 42.6328)"><tspan x="0" y="0" class="st0 st3">extra </tspan><tspan x="0.26" y="12" class="st0 st3">space</tspan></text>
<text transform="matrix(1 0 0 1 247.6045 42.6328)"><tspan x="0" y="0" class="st0 st3">imaginary halfedges</tspan><tspan x="5.83" y="12" class="st0 st3">(possibly deleted)</tspan></text>
<g class="st15">
	<line class="st16" x1="112.52" y1="70.85" x2="117.98" y2="81.65"/>
	<line class="st16" x1="110.09" y1="81.81" x2="119.12" y2="71.16"/>
</g>
<g class="st15">
	<line class="st16" x1="163.52" y1="70.85" x2="168.98" y2="81.65"/>
	<line class="st16" x1="161.09" y1="81.81" x2="170.12" y2="71.16"/>
</g>
<g class="st15">
	<line class="st16" x1="96.52" y1="70.85" x2="101.98" y2="81.65"/>
	<line class="st16" x1="94.09" y1="81.81" x2="103.12" y2="71.16"/>
</g>
<g class="st15">
	<line class="st16" x1="266.52" y1="70.85" x2="271.98" y2="81.65"/>
	<line class="st16" x1="264.09" y1="81.81" x2="273.12" y2="71.16"/>
</g>
<line class="st17" x1="191.5" y1="89" x2="191.5" y2="124"/>
<line class="st17" x1="225.5" y1="89" x2="225.5" y2="136.5"/>
<line class="st17" x1="293.5" y1="89" x2="293.5" y2="117.5"/>
<text transform="matrix(1 0 0 1 123.4946 131.0518)" class="st18 st3">nRealRegion=11</text>
<text transform="matrix(1 0 0 1 246.4946 131.0518)" class="st18 st3">nBufferSize=16</text>
<text transform="matrix(1 0 0 1 185.4946 146.0518)" class="st18 st3">nImagRegion=13</text>
<text transform="matrix(1 0 0 1 355.4951 60.0518)" class="st18 st3">nHalfedges=10</text>
<text transform="matrix(1 0 0 1 331.4937 74.0518)" class="st18 st3">nRealHalfedges=8</text>
<text transform="matrix(1 0 0 1 331.4937 88.0518)" class="st18 st3">nImagHalfedges=2</text>
<g class="st15">
	<line class="st16" x1="180.52" y1="70.85" x2="185.98" y2="81.65"/>
	<line class="st16" x1="178.09" y1="81.81" x2="187.12" y2="71.16"/>
</g>
<g class="st15">
	<line class="st16" x1="282.52" y1="70.85" x2="287.98" y2="81.65"/>
	<line class="st16" x1="280.09" y1="81.81" x2="289.12" y2="71.16"/>
</g>
<g>
	<rect x="21.5" y="180.5" class="st2" width="17" height="17"/>
	<rect x="38.5" y="180.5" class="st2" width="17" height="17"/>
	<text transform="matrix(1 0 0 1 27.6387 192.6328)" class="st0 st1">0</text>
	<text transform="matrix(1 0 0 1 44.6387 192.6328)" class="st0 st1">1</text>
	<rect x="55.5" y="180.5" class="st2" width="17" height="17"/>
	<rect x="72.5" y="180.5" class="st2" width="17" height="17"/>
	<text transform="matrix(1 0 0 1 61.6387 192.6328)" class="st0 st1">2</text>
	<text transform="matrix(1 0 0 1 78.6387 192.6328)" class="st0 st1">3</text>
	<rect x="89.5" y="180.5" class="st2" width="17" height="17"/>
	<rect x="106.5" y="180.5" class="st2" width="17" height="17"/>
	<text transform="matrix(1 0 0 1 95.6387 192.6328)" class="st0 st1">4</text>
	<text transform="matrix(1 0 0 1 112.6387 192.6328)" class="st0 st1">5</text>
	<rect x="123.5" y="180.5" class="st2" width="17" height="17"/>
	<rect x="140.5" y="180.5" class="st2" width="17" height="17"/>
	<text transform="matrix(1 0 0 1 129.6387 192.6328)" class="st0 st1">6</text>
	<text transform="matrix(1 0 0 1 146.6387 192.6328)" class="st0 st1">7</text>
	<rect x="157.5" y="180.5" class="st2" width="17" height="17"/>
	<rect x="174.5" y="180.5" class="st2" width="17" height="17"/>
	<text transform="matrix(1 0 0 1 163.6387 192.6328)" class="st0 st1">8</text>
	<text transform="matrix(1 0 0 1 180.6387 192.6328)" class="st0 st1">9</text>
</g>
<g>
	<g>
		<line class="st6" x1="22" y1="176.5" x2="23.5" y2="176.5"/>
		<line class="st19" x1="26.48" y1="176.5" x2="150.01" y2="176.5"/>
		<line class="st6" x1="151.5" y1="176.5" x2="153" y2="176.5"/>
		<g>
			<rect x="21.5" y="173.25" class="st8" width="1" height="6.5"/>
		</g>
		<g>
			<rect x="152.5" y="173.25" class="st8" width="1" height="6.5"/>
		</g>
	</g>
</g>
<g>
	<g>
		<line class="st9" x1="191" y1="176.5" x2="189.5" y2="176.5"/>
		<line class="st20" x1="186.5" y1="176.5" x2="164" y2="176.5"/>
		<line class="st9" x1="162.5" y1="176.5" x2="161" y2="176.5"/>
		<g>
			<rect x="190.5" y="173.25" class="st11" width="1" height="6.5"/>
		</g>
		<g>
			<rect x="160.5" y="173.25" class="st11" width="1" height="6.5"/>
		</g>
	</g>
</g>
<g>
	<g>
		<line class="st12" x1="154" y1="176.5" x2="154.5" y2="176.5"/>
		<line class="st21" x1="155.5" y1="176.5" x2="159" y2="176.5"/>
		<line class="st12" x1="159.5" y1="176.5" x2="160" y2="176.5"/>
		<g>
			<rect x="153.5" y="173.25" class="st14" width="1" height="6.5"/>
		</g>
		<g>
			<rect x="159.5" y="173.25" class="st14" width="1" height="6.5"/>
		</g>
	</g>
</g>
<line class="st17" x1="156.5" y1="200" x2="156.5" y2="214.5"/>
<line class="st17" x1="158.5" y1="200" x2="158.5" y2="231.5"/>
<text transform="matrix(1 0 0 1 78.4951 224.0518)" class="st18 st3">nRealRegion=8</text>
<text transform="matrix(1 0 0 1 169.4946 224.0518)" class="st18 st3">nBufferSize=10</text>
<text transform="matrix(1 0 0 1 121.4951 241.0518)" class="st18 st3">nImagRegion=8</text>
<line class="st17" x1="191.5" y1="200" x2="191.5" y2="214.5"/>
<g>
	<g>
		<path class="st22" d="M17.5,89.5c-3.89,6.48-11.67,21.43-12,42c-0.27,16.54,4.4,29.63,8.21,37.65"/>
		<g>
			<path d="M16.5,174.5c-2.24-2.04-5.44-4.36-8.14-5.43l5.02-0.64l3.44-3.7C16.13,167.54,16.14,171.49,16.5,174.5z"/>
		</g>
	</g>
</g>
<text transform="matrix(1 0 0 1 8.4966 136.0518)" class="st18 st3">compress()</text>
</svg>
